<svg xmlns="http://www.w3.org/2000/svg" viewBox="0 0 290.67 92.69"><defs><style>.a{isolation:isolate;}.b{fill:#451667;}.c{mix-blend-mode:multiply;opacity:0.75;}.d{fill:#fff;}.e{fill:#461667;}</style></defs><g class="a"><rect class="b" width="68.67" height="69.08"/><rect class="b" x="74" width="68.67" height="69.08"/><rect class="b" x="148" width="68.67" height="69.08"/><rect class="b" x="222" width="68.67" height="69.08"/><g class="c"><path d="M54.41,13.81A14.16,14.16,0,0,1,57,22.32a12.45,12.45,0,0,1-2.58,8.22,13.4,13.4,0,0,1-4.26,3.18,12.39,12.39,0,0,1,6.45,4.92,14.73,14.73,0,0,1,2.17,8.17,16.39,16.39,0,0,1-2.48,8.9A15.41,15.41,0,0,1,46,62.9a39,39,0,0,1-7.88.75H13V7.86H40Q50.15,8,54.41,13.81ZM24.12,17.55v12.3H37.68a11.23,11.23,0,0,0,5.9-1.38q2.27-1.38,2.26-4.9c0-2.6-1-4.31-3-5.15a21.06,21.06,0,0,0-6.6-.87Zm0,21.54V54H37.66a13.09,13.09,0,0,0,5.65-1Q47,51.17,47,46q0-4.37-3.56-6a14.08,14.08,0,0,0-5.57-.95Z"/></g><path class="d" d="M53,12.37a14.16,14.16,0,0,1,2.56,8.51A12.45,12.45,0,0,1,53,29.1a13.4,13.4,0,0,1-4.26,3.18,12.39,12.39,0,0,1,6.45,4.92,14.73,14.73,0,0,1,2.17,8.17,16.39,16.39,0,0,1-2.48,8.9,15.35,15.35,0,0,1-10.26,7.19,39,39,0,0,1-7.88.75H11.55V6.42h27Q48.71,6.59,53,12.37ZM22.68,16.11v12.3H36.24A11.23,11.23,0,0,0,42.14,27q2.27-1.38,2.26-4.9c0-2.6-1-4.31-3-5.15a21.06,21.06,0,0,0-6.6-.87Zm0,21.54V52.52H36.22a13.09,13.09,0,0,0,5.65-1q3.68-1.82,3.67-7,0-4.36-3.56-6a14.08,14.08,0,0,0-5.57-1Z"/><g class="c"><path d="M268.25,9.08a18.35,18.35,0,0,1,9.51,7.07,25,25,0,0,1,4,9,43.69,43.69,0,0,1,1.06,9.24q0,11.12-4.47,18.85-6.06,10.39-18.71,10.4H235.56V7.86h24.06A29.52,29.52,0,0,1,268.25,9.08Zm-21.37,8.47V54h10.77q8.27,0,11.52-8.13A28.66,28.66,0,0,0,271,35.19c0-5.68-.89-10-2.67-13.08s-5.33-4.56-10.63-4.56Z"/></g><path class="d" d="M266.81,7.64a18.35,18.35,0,0,1,9.51,7.07,25,25,0,0,1,4,9A43.69,43.69,0,0,1,281.36,33q0,11.11-4.47,18.85-6.06,10.39-18.71,10.4H234.12V6.42h24.06A29.52,29.52,0,0,1,266.81,7.64Zm-21.37,8.47V52.52h10.77q8.27,0,11.52-8.13a28.66,28.66,0,0,0,1.78-10.64c0-5.68-.89-10-2.67-13.08s-5.33-4.56-10.63-4.56Z"/><g class="c"><path d="M195.39,7.86H207.5l-19,55.79h-11L158.6,7.86h12.45l12.12,42.36Z"/></g><path class="d" d="M194,6.42h12.11L187,62.21H176L157.16,6.42h12.45l12.12,42.36Z"/><g class="c"><path d="M93.23,7.86h11.65V53.62h27.86v10H93.23Z"/></g><path class="d" d="M91.79,6.42h11.65V52.18H131.3v10H91.79Z"/><circle class="b" cx="214.87" cy="86.79" r="5.89"/><path class="d" d="M214.32,82.57a.68.68,0,0,1,.33.16.61.61,0,0,1,.22.64.64.64,0,0,1-.52.51h-.06l.08,1.32h1.69v.63h-1.63l0,.39s0,0,0,0h0l2.12,0a.1.1,0,0,1,.1.06c.3.7.6,1.4.91,2.1l0,.07.73-.27.21.49-1.31.51,0-.06-.94-2.22a.09.09,0,0,0-.1-.06h-2.36c0-.11,0-.22,0-.33,0-.5-.07-1-.11-1.49s-.06-1-.1-1.44a.24.24,0,0,0,0-.09.66.66,0,0,1,.49-.94h.2Z"/><path class="d" d="M212.11,87.39c0-.1,0-.2,0-.3a2.41,2.41,0,0,1,1.35-1.73h0a1.64,1.64,0,0,1,0,.22c0,.15,0,.3,0,.45a.15.15,0,0,1,0,.07,1.77,1.77,0,0,0-.36,2.62,1.74,1.74,0,0,0,1,.58,1.77,1.77,0,0,0,2.12-1.51s0,0,0,0l.38.78a.07.07,0,0,1,0,.09A2.43,2.43,0,0,1,214.9,90a2.34,2.34,0,0,1-2-.61,2.39,2.39,0,0,1-.77-1.36,2.7,2.7,0,0,1,0-.28Z"/><path class="e" d="M239.18,91.57a12.54,12.54,0,0,1-5.36,1.08c-5.62,0-9.28-3.81-9.28-9.51s3.93-9.9,10-9.9a11.32,11.32,0,0,1,4.69,1l-.77,2.62a7.84,7.84,0,0,0-3.92-.89c-4.28,0-6.59,3.16-6.59,7,0,4.32,2.77,7,6.47,7A9.67,9.67,0,0,0,238.6,89Z"/><path class="e" d="M259.78,82.79c0,6.89-4.77,9.9-9.28,9.9-5,0-8.93-3.7-8.93-9.59,0-6.24,4.08-9.9,9.24-9.9C256.16,73.2,259.78,77.09,259.78,82.79ZM245,83c0,4.08,2.35,7.17,5.67,7.17s5.66-3.05,5.66-7.24c0-3.16-1.58-7.17-5.59-7.17S245,79.44,245,83Z"/><path class="e" d="M264.06,78.67c0-1.93,0-3.51-.15-5h3l.15,3h.12A6.42,6.42,0,0,1,273,73.2a5.51,5.51,0,0,1,5.28,3.74h.08a7.75,7.75,0,0,1,2.08-2.43,6.33,6.33,0,0,1,4.12-1.31c2.46,0,6.12,1.62,6.12,8.09v11h-3.31V81.71c0-3.58-1.31-5.74-4-5.74a4.4,4.4,0,0,0-4,3.08,5.77,5.77,0,0,0-.27,1.7V92.26h-3.31V81.1c0-3-1.31-5.13-3.89-5.13a4.64,4.64,0,0,0-4.2,3.39,4.74,4.74,0,0,0-.27,1.66V92.26h-3.31Z"/></g></svg>